<svg xmlns:mydata="http://www.w3.org/2000/svg" mydata:contrastcolor="e5b6e4"
    mydata:template="Default" mydata:presentation="2.5" mydata:layouttype="undefined"
    mydata:specialfontid="undefined" mydata:id1="595" mydata:id2="333" mydata:companyname="plenary"
    mydata:companytagline="" version="1.1" xmlns="http://www.w3.org/2000/svg"
    xmlns:xlink="http://www.w3.org/1999/xlink" viewBox="0 45 550 380">
    <g fill="#ad1aac" fill-rule="none" stroke="none" stroke-width="1" stroke-linecap="butt"
        stroke-linejoin="miter" stroke-miterlimit="10" stroke-dasharray="" stroke-dashoffset="0"
        font-family="none" font-weight="none" font-size="none" text-anchor="none"
        style="mix-blend-mode: normal">
        <g
            data-paper-data="{&quot;isGlobalGroup&quot;:true,&quot;bounds&quot;:{&quot;x&quot;:65,&quot;y&quot;:203.37376812290478,&quot;width&quot;:420,&quot;height&quot;:63.252463754190444}}">
            <g data-paper-data="{&quot;isPrimaryText&quot;:true}" fill-rule="nonzero">
                <path
                    d="M196.29349,206.46505h-20.98158v57.06989h10.07116v-15.10674h10.91042c11.58183,0 20.98158,-9.39975 20.98158,-20.98158c0,-11.58183 -9.39975,-20.98158 -20.98158,-20.98158zM196.29349,238.35705h-10.91042v-21.82084h10.91042c6.04269,0 10.91042,4.86773 10.91042,10.91042c0,6.04269 -4.86773,10.91042 -10.91042,10.91042z"
                    data-paper-data="{&quot;glyphName&quot;:&quot;P&quot;,&quot;glyphIndex&quot;:0,&quot;firstGlyphOfWord&quot;:true,&quot;word&quot;:1}"></path>
                <path
                    d="M235.73885,253.46379v-46.99873h-10.07116v57.06989h48.67726l-5.03558,-10.07116zM274.34496,250.10674l-5.03558,-10.07116h-13.42821v-6.7141h13.42821v-10.07116h-13.42821v-6.7141h13.42821l5.03558,-10.07116h-28.53495v43.64168z"
                    data-paper-data="{&quot;glyphName&quot;:&quot;&quot;,&quot;glyphIndex&quot;:1,&quot;word&quot;:1}"></path>
                <path
                    d="M314.62959,206.46505v32.73126l-31.892,-33.57052v57.90916h10.07116v-32.73126l31.892,33.57052v-57.90916z"
                    data-paper-data="{&quot;glyphName&quot;:&quot;N&quot;,&quot;glyphIndex&quot;:2,&quot;word&quot;:1}"></path>
                <path
                    d="M379.84033,263.53495h3.60883l-24.33863,-57.90916l-24.33863,57.90916h3.60883l5.70699,-13.42821h30.04562zM345.51447,246.74968l13.59606,-32.47948l13.59606,32.47948z"
                    data-paper-data="{&quot;glyphName&quot;:&quot;A&quot;,&quot;glyphIndex&quot;:3,&quot;fontStyleEffect&quot;:true,&quot;word&quot;:1}"></path>
                <path
                    d="M433.80495,225.76811c0,-10.65864 -8.64441,-19.30305 -19.30305,-19.30305h-19.30305v57.06989h3.35705v-18.46379h15.946c0.50356,0 1.00712,0 1.5946,-0.08393l13.51214,18.54771h4.19632l-14.09962,-19.21913c8.14085,-2.26601 14.09962,-9.73545 14.09962,-18.54771zM398.5559,209.82211h15.946c8.81226,0 15.946,7.13374 15.946,15.946c0,8.81226 -7.13374,15.946 -15.946,15.946h-15.946z"
                    data-paper-data="{&quot;glyphName&quot;:&quot;R&quot;,&quot;glyphIndex&quot;:4,&quot;fontStyleEffect&quot;:true,&quot;word&quot;:1}"></path>
                <path
                    d="M481.13939,206.46505l-17.96023,31.38844l-17.96023,-31.38844h-3.86061l20.14231,35.24905v21.82084h3.35705v-21.82084l20.14231,-35.24905z"
                    data-paper-data="{&quot;glyphName&quot;:&quot;Y&quot;,&quot;glyphIndex&quot;:5,&quot;lastGlyphOfWord&quot;:true,&quot;fontStyleEffect&quot;:true,&quot;word&quot;:1}"></path>
            </g>
            <g
                data-paper-data="{&quot;fillRule&quot;:&quot;evenodd&quot;,&quot;fillRuleOriginal&quot;:&quot;evenodd&quot;,&quot;isIcon&quot;:true,&quot;iconStyle&quot;:&quot;standalone&quot;,&quot;selectedEffects&quot;:{&quot;container&quot;:&quot;&quot;,&quot;transformation&quot;:&quot;&quot;,&quot;pattern&quot;:&quot;&quot;},&quot;bounds&quot;:{&quot;x&quot;:65,&quot;y&quot;:203.37376812290478,&quot;width&quot;:74.32006189393454,&quot;height&quot;:63.252463754190444},&quot;iconType&quot;:&quot;icon&quot;,&quot;isDetailed&quot;:false,&quot;source&quot;:&quot;noun&quot;,&quot;rawIconId&quot;:&quot;2404699&quot;,&quot;suitableAsStandaloneIcon&quot;:true}"
                fill-rule="evenodd">
                <path
                    d="M113.78414,205.41417c-0.12366,-0.18549 -0.24732,-0.43281 -0.30915,-0.68013c-0.06183,-0.24732 -0.06183,-0.43281 -0.18549,-0.55647c-0.06183,-0.37098 0,-0.6183 0,-0.6183c0.12366,-0.12366 0.30915,-0.18549 0.43281,-0.18549c0.12366,0 0.24732,0 0.37098,0.06183c0.43281,0.18549 0.98929,0.74196 1.54576,1.66942c0.49464,0.74196 0.98929,1.79308 1.54576,3.02969c0.92745,2.16406 1.73125,4.57544 1.97857,5.56473c0.18549,0.80379 0.43281,1.54576 0.68013,2.16406c-0.6183,0.49464 -1.05112,0.98929 -1.4221,1.4221c-0.24732,0.24732 -0.49464,0.55647 -0.6183,0.6183c-0.43281,-0.24732 -2.0404,-1.48393 -3.64799,-3.58616c0,-0.06183 -0.06183,-0.06183 -0.06183,-0.12366v-0.6183c0.06183,-0.43281 0.06183,-0.92745 -0.30915,-1.4221c-0.27601,-0.33123 -0.20701,-0.71173 -0.14505,-1.05346c0.00742,-0.04105 0.01478,-0.08156 0.02139,-0.12131c0.00247,-0.0149 0.00495,-0.02974 0.00742,-0.04452c0.05899,-0.35138 0.10876,-0.64804 -0.06925,-0.94477c-0.20756,-0.31138 -0.15384,-0.53564 -0.0946,-0.78252c0.01132,-0.04724 0.02282,-0.09528 0.03277,-0.14493c0.00983,-0.03932 0.02121,-0.07865 0.03271,-0.11822c0.06066,-0.2093 0.12329,-0.42558 -0.03271,-0.68558c-0.156,-0.26 -0.09336,-0.47628 -0.03271,-0.68558c0.0115,-0.03957 0.02288,-0.07889 0.03271,-0.11822c0.12366,-0.18549 0.18549,-0.43281 0.06183,-0.68013c-0.06183,-0.12366 -0.06183,-0.24732 -0.06183,-0.43281c0,-0.12366 0,-0.24732 0.06183,-0.43281c0.06183,-0.24732 0.18549,-0.49464 0.18549,-0.49464zM122.50221,235.89653c1.91674,-0.98929 3.52433,-2.0404 4.82277,-3.09152l0.06183,0.06183c1.91798,2.70502 3.91448,7.52259 4.61996,9.22478v0.00049c0.18116,0.43745 0.277,0.66894 0.26464,0.60575c-0.6183,-3.89531 -1.91674,-7.60513 -3.83348,-10.94397c0.43281,-0.43281 0.80379,-0.92745 1.11295,-1.4221c0.74196,-1.17478 1.11295,-2.34955 0.92745,-3.4625c-0.30915,-2.41138 -2.78236,-4.38995 -6.67768,-5.68839c0.18549,-0.30915 0.30915,-0.6183 0.49464,-0.80379c0.98929,-1.60759 0.98929,-3.02969 3.33884,-3.95714c2.34955,-0.92745 5.00826,-1.29844 5.00826,-1.29844c0,0 -1.66942,-0.06183 -3.83348,0.43281c-0.50701,0.10134 -0.93549,0.19934 -1.30771,0.28436c-1.21744,0.27811 -1.83018,0.41809 -2.5876,0.08662c-0.98929,-0.43281 -2.72053,-1.11295 -4.32812,0.06183c-0.74852,0.54701 -1.28261,1.16105 -1.69582,1.63616c-0.47418,0.54522 -0.7892,0.90736 -1.08654,0.77523c-0.55647,-0.24732 -2.22589,-1.60759 -3.89531,-3.77165c-1.66942,-2.16406 -10.07835,-11.25312 -11.99509,-8.53259c0,0 0.24732,1.23661 1.36027,1.97857c0,0 -0.30915,1.11295 0.30915,1.60759c0.30223,0.24176 0.27947,0.51313 0.2566,0.78512c-0.02387,0.28442 -0.0478,0.56958 0.29988,0.82247c0.68013,0.49464 0,1.36027 0.80379,1.85491c0.86562,0.49464 0.12366,1.73125 1.17478,2.28772c0.80379,0.43281 0.92745,1.17478 1.17478,1.73125c-13.85,-2.34955 -27.20535,5.07009 -32.83192,17.55982c-0.80379,-0.49464 -0.98929,-1.17478 -0.80379,-1.79308c0.12366,-0.49464 1.48393,-3.58616 5.75022,-7.91428c-6.30669,2.90603 -10.14018,6.43035 -9.70737,9.83103c0.06183,0.37098 0.37098,1.54576 1.66942,2.53504c-4.01897,1.48393 -6.36852,3.09152 -6.36852,5.00826c0,0.98929 0.6183,1.85491 1.36027,2.53504c1.4221,0.92745 3.21518,2.28772 11.43862,2.28772c5.5029,0 11.74777,-1.17478 18.23995,-2.47321c10.75848,-2.10223 20.15669,-5.37924 26.46338,-8.84174zM88.61918,227.36394c0,-0.06183 0.06183,-0.6183 0.12366,-0.68013c0.06183,-0.06183 0.12366,-0.30915 0.18549,-0.37098c0.09274,-0.04637 0.08118,-0.09274 0.06956,-0.13912c-0.00383,-0.01546 -0.00773,-0.03091 -0.00773,-0.04637c0,-0.06183 0.06183,-0.12366 0.12366,-0.18549c0.06183,-0.06183 0.18549,-0.12366 0.30915,-0.18549c0.12366,-0.06183 0.18549,-0.37098 0.30915,-0.43281c0.06183,-0.06183 0.12366,-0.18549 0.12366,-0.18549c0,0 0.06183,-0.12366 0.12366,-0.18549c0.06183,-0.06183 0.12366,-0.06183 0.24732,-0.06183c0.12366,0 0.49464,-0.12366 0.55647,-0.12366c0.06183,0 0.12366,-0.06183 0.18549,-0.12366c0.06183,0 0.12366,-0.06183 0.18549,-0.12366c0.06183,0 0.18549,-0.06183 0.37098,-0.12366c0.12113,-0.04037 0.16317,-0.05441 0.19495,-0.04204c0.01688,0.00656 0.03091,0.02059 0.05237,0.04204l0.18549,0.06183c0.06183,0 0.18549,-0.06183 0.18549,-0.06183h0.49464c0,0 0.43281,0.06183 0.6183,0.06183c0.18549,0 0.06183,-0.06183 0.18549,-0.12366c0.06183,-0.06183 0.18549,-0.12366 0.24732,-0.12366c0.01416,0 0.03153,-0.00321 0.05435,-0.00748c0.07698,-0.01434 0.21597,-0.04019 0.50212,0.00748c0.24732,0.04124 0.21987,0.05497 0.21066,0.05954c-0.00117,0.00056 -0.00204,0.00099 -0.00198,0.00136c0.00012,0.00093 0.00797,0.00093 0.03864,0.00093c0.12366,0 0.12366,0 0.18549,-0.06183c0.12366,0 0.37098,0.06183 0.49464,0.18549c0.06183,0.06183 0.07729,0.06183 0.07729,0.06183l-0.01546,0.06183c0.06183,0.06183 0.24732,0 0.37098,-0.06183c0.12366,0 0.18549,0.06183 0.24732,0.12366l0.12366,0.12366l0.12366,0.12366c0.06183,0.06183 0.06183,0.12366 0.06183,0.12366c0,0 -0.06183,0.12366 -0.12366,0.18549c-0.06183,0.12366 -0.06183,0.12366 -0.06183,0.18549c-0.03667,0.03667 -0.02987,0.07333 -0.01824,0.13578c0.00797,0.04291 0.01824,0.09788 0.01824,0.17337c0,0.24732 0,0.12366 0.06183,0.24732c0.06183,0.06183 0.06183,0.12366 0.06183,0.18549c0,0.06183 0,0.12366 0.06183,0.30915c0.06183,0.18549 0.12366,0.18549 0.18549,0.18549c0.06183,0 0.18549,-0.06183 0.30915,-0.12366c0.12366,-0.06183 0.12366,-0.18549 0.18549,-0.24732c0.06183,-0.06183 0.06183,-0.24732 0.12366,-0.30915c0.06183,-0.06183 0.06183,-0.12366 0.06183,-0.24732c0.02411,-0.04817 0.02943,-0.0588 0.0269,-0.06115c-0.00068,-0.00068 -0.00198,-0.00068 -0.00371,-0.00068c-0.00773,0 -0.02319,0 -0.02319,-0.06183v-1.05112c0,-0.06183 0.06183,-0.12366 0.06183,-0.18549c0,-0.06183 0.06183,-0.12366 0.12366,-0.18549c0.06183,-0.06183 0.12366,-0.12366 0.18549,-0.12366c0,0 0.18549,-0.12366 0.24732,-0.18549c0.06183,-0.06183 0.18549,-0.06183 0.30915,-0.06183c0.06183,0 0.30915,-0.18549 0.43281,-0.24732l0.12366,-0.06183h0.49464c0.06183,0 0.12366,-0.06183 0.12366,-0.06183c0,0 0.18549,-0.06183 0.24732,-0.06183c0.06183,0 0.18549,-0.06183 0.18549,-0.06183c0.06183,0 0.55647,-0.18549 0.6183,-0.18549c0.06183,0 0.06183,-0.12366 0.06183,-0.12366l0.12366,-0.18549c0,0 0.06183,-0.24732 0.06183,-0.30915c0.06183,-0.06183 0.37098,-0.37098 0.43281,-0.37098c0.06183,-0.06183 0.06183,-0.06183 0.24732,-0.06183c0.18549,0 0.12366,0 0.24732,-0.06183c0.12366,-0.06183 0.12366,-0.12366 0.18549,-0.18549l0.24732,-0.12366c0.12366,-0.06183 0.12366,-0.06183 0.24732,-0.06183c0.12366,-0.06183 0.18549,-0.06183 0.24732,-0.06183h0.43281c0,0 0.6183,0.18549 0.68013,0.18549c0.06183,0 0,-0.12366 0,-0.12366l-0.06183,-0.12366v-0.18549c0.06183,-0.06183 0.06183,-0.12366 0.12366,-0.12366c0.06183,-0.06183 0.12366,-0.06183 0.43281,-0.06183c0.30915,0 0.24732,-0.06183 0.30915,-0.06183h0.18549c0.06183,0 0.98929,-0.18549 1.05112,-0.18549c0.06183,0 0.12366,0.06183 0.12366,0.06183c0,0.06183 -0.18549,0.12366 -0.18549,0.12366c0,0 -0.06183,0.12366 0,0.18549c0.06183,0.06183 0.06183,0.12366 0.18549,0.12366c0.08242,0.04124 0.1649,0 0.22902,-0.03209c0.03203,-0.01601 0.05954,-0.02974 0.08013,-0.02974c0.06183,0 0.24732,-0.06183 0.37098,-0.06183c0.06183,0 0.18549,-0.06183 0.24732,-0.06183h0.6183c0.06183,0 0.24732,-0.06183 0.30915,-0.06183c0.06183,0 0.18549,-0.12366 0.18549,-0.12366v-0.12366c0,0 -0.24732,0.06183 -0.30915,0.12366c-0.06183,0 -0.12366,0.06183 -0.12366,0.06183c0,0 -0.12366,0 -0.37098,-0.06183l-0.24732,-0.06183c0,0 -0.06183,-0.06183 -0.12366,-0.06183c-0.06183,0 -0.18549,-0.12366 -0.18549,-0.12366c0,0 -0.12366,-0.12366 -0.12366,-0.18549c0,-0.06183 -0.06183,-0.18549 -0.06183,-0.18549c0,0 0,-0.06183 0.06183,-0.06183c0.06183,0 0.12366,-0.06183 0.18549,-0.06183c0.06183,0 0.06183,-0.12366 0.06183,-0.12366c0,0 -0.12366,-0.06183 -0.18549,-0.12366c0,0 -0.30915,-0.06183 -0.37098,-0.06183c0,0 -0.24732,-0.12366 -0.18549,-0.12366c0,-0.06183 0.12366,-0.06183 0.18549,-0.06183h0.37098c0.12366,0 0.18549,0 0.24732,0.06183c0.12366,0 0.06183,0 0.24732,0.06183c0.12366,0.06183 0.18549,0.06183 0.30915,0.06183h0.18549c0.06183,0 0.12366,0 0.30915,0.12366c0.18549,0.06183 0.18549,0.06183 0.24732,0.06183h0.55647c0.06183,0 0.12366,-0.06183 0.18549,-0.06183h0.24732c0.06183,0 0.12366,0.06183 0.18549,0.06183h0.43281c0.0724,0 0.01756,-0.02121 -0.02788,-0.03877c-0.03215,-0.01243 -0.05954,-0.02306 -0.03395,-0.02306c0.06183,0 0,-0.12366 0,-0.12366c0,-0.06183 -0.12366,-0.18549 -0.12366,-0.18549c0.06183,0 -0.24732,-0.18549 -0.24732,-0.18549l-0.37098,-0.12366c0,0 -0.43281,-0.30915 -0.49464,-0.30915c-0.06183,0 -0.12366,-0.06183 -0.18549,-0.12366c-0.06183,-0.06183 -0.12366,-0.12366 -0.18549,-0.24732c0.24732,0.06183 0.55647,0.12366 0.80379,0.12366c0.12366,0 0.18549,0.06183 0.30915,0.06183c0.24732,0.24732 0.49464,0.43281 0.80379,0.68013c1.11295,0.86562 0.68013,2.53504 1.54576,2.8442c0,0 -0.86562,1.17478 -1.11295,2.41138c-0.18549,0.80379 -0.98929,2.34955 -2.34955,3.58616c-1.73125,0.92745 -3.58616,1.85491 -5.56473,2.72053c-0.18549,0.06183 -0.37098,0.18549 -0.55647,0.24732c-0.6183,0.24732 -1.23661,0.49464 -1.91674,0.74196c-0.6183,0.24732 -1.29844,0.49464 -1.91674,0.68013h-0.06183c0,0 -0.06183,0 -0.12366,0.06183c0,0.06183 -0.12366,0.06183 -0.12366,0.06183l-0.18549,0.06183c-0.06183,0 -0.12366,-0.06183 -0.12366,-0.06183c-0.06183,0 -0.12366,0 -0.18549,0.06183c-0.12366,0 -0.12366,0.06183 -0.18549,0.12366c0,0.06183 0,0.06183 -0.06183,0.12366c-0.43281,0.12366 -0.80379,0.24732 -1.23661,0.37098c0,-0.06183 -0.12366,-0.12366 -0.12366,-0.18549l-0.24732,-0.12366c0,0 -0.6183,0 -0.74196,0.06183c-0.07642,0.03821 -0.08199,0.02919 -0.08972,0.01676c-0.00476,-0.00773 -0.01033,-0.01676 -0.03395,-0.01676c-0.06183,0 -0.18549,0.06183 -0.18549,0.06183l-0.18549,0.06183c-0.06183,0 -0.18549,-0.06183 -0.18549,-0.06183l-0.24732,-0.12366c0,0 -0.12366,-0.18549 -0.18549,-0.18549c0,-0.06183 -0.12366,-0.12366 -0.18549,-0.24732c0,-0.12366 -0.06183,-0.06183 -0.12366,-0.12366c-0.06183,-0.06183 -0.12366,-0.37098 -0.12366,-0.43281c0,-0.06183 0.06183,-0.18549 0.06183,-0.24732c0.06183,-0.06183 0.06183,-0.18549 0.12366,-0.24732c0.06183,-0.06183 0.24732,-0.6183 0.30915,-0.68013c0.06183,-0.06183 0.06183,-0.12366 0.12366,-0.18549c0.06183,-0.06183 0.06183,-0.06183 0.06183,-0.12366c0,-0.06183 0,-0.06183 0.06183,-0.12366c0,-0.06183 0.06183,-0.12366 0.06183,-0.12366c0,-0.06183 -0.30915,-0.43281 -0.30915,-0.43281l-0.24732,-0.12366h-1.48393c-0.06183,0 -0.43281,-0.18549 -0.37098,-0.18549l0.06183,-0.06183c0.06183,0 0.12366,-0.12366 0.18549,-0.12366c0.06183,0 0.06183,-0.06183 0.12366,-0.12366c0.06183,-0.06183 0.12366,-0.43281 0.24732,-0.6183c0.07512,-0.11272 0.0818,-0.11129 0.10319,-0.10666c0.01379,0.00297 0.03376,0.00724 0.08229,-0.017c0.12366,-0.06183 0.06183,0 0.12366,-0.12366c0.06183,-0.06183 0.06183,-0.18549 0.18549,-0.24732l0.18549,-0.18549h0.06183l0.49464,-0.24732c0,0 0.18549,-0.06183 0.30915,-0.06183c0.12366,0 0.24732,0.06183 0.24732,0.06183h0.12366v0.12366c0,0 0.06183,0.06183 0.12366,0.06183h0.30915c0.06183,0 0.24732,0.06183 0.24732,0.06183l0.12366,0.12366l0.12366,0.06183c0.06183,0 0.18549,0.12366 0.18549,0.12366c0,0 0.12366,0.06183 0.18549,0.12366c0.06183,0 0.37098,0.24732 0.37098,0.24732h0.18549c0.06183,0 0.18549,0.12366 0.12366,0.18549c-0.06183,0.06183 -0.18549,0.12366 -0.18549,0.12366c0,0 0.12366,0.06183 0.18549,0.06183h0.37098c0,0 0.30915,-0.06183 0.37098,-0.06183v0.06183c0,0 0,0.12366 0.18549,0.24732c0.12366,0.06183 0.12366,0.06183 0.24732,0.06183h0.24732c0.12366,0 0.12366,0 0.18549,0.06183c0.04372,0.04372 0.05651,0.0256 0.08211,-0.01064c0.01064,-0.01496 0.02343,-0.03308 0.04155,-0.0512c0.03821,-0.03821 0.02919,-0.07642 0.01676,-0.12922c-0.00773,-0.03265 -0.01676,-0.07086 -0.01676,-0.11809c0,-0.12366 -0.18549,-0.12366 -0.18549,-0.12366l-0.18549,-0.06183h0.12366c0,0 0.06183,0.12366 0.12366,-0.12366c0,0 0.05948,0 -0.00711,-0.06183h0.31626c0,0 0.30915,-0.06183 0.37098,-0.06183c0.12366,0 0.24732,0.06183 0.24732,0.06183l0.24732,0.06183h0.18549c0,0 0.06183,0.12366 0.12366,-0.12366c0,0 0.12366,0 -0.12366,-0.18549c-0.24732,-0.18549 -0.30915,-0.24732 -0.37098,-0.24732h-0.18549c-0.06183,0 -0.06183,-0.06183 -0.18549,-0.12366l-0.12366,-0.12366c-0.05775,-0.05775 -0.02108,-0.07506 -0.0034,-0.08341c0.00464,-0.00216 0.00797,-0.00371 0.00792,-0.00525c-0.00006,-0.00507 -0.03778,-0.00965 -0.19,-0.035c-0.37098,-0.06183 -0.18549,0 -0.37098,-0.12366c-0.18549,-0.12366 -0.06183,-0.12366 -0.18549,-0.18549l-0.24732,-0.12366l-0.24732,-0.12366l-0.12366,-0.06183c-0.12366,-0.06183 -0.18549,-0.06183 -0.18549,-0.06183l-0.12366,-0.06183c-0.02059,-0.02059 -0.02059,-0.04124 -0.02059,-0.05954c0,-0.03667 0,-0.06412 -0.1649,-0.06412c-0.24732,0 -0.24732,-0.06183 -0.30915,-0.06183c-0.06183,0 -0.18549,0.06183 -0.24732,0.06183c-0.12366,0 -0.18549,-0.06183 -0.24732,-0.06183c-0.03605,-0.03605 -0.11401,-0.00909 -0.1973,0.01966c-0.05967,0.02065 -0.12205,0.04217 -0.17368,0.04217c-0.12366,0 -0.06183,0 -0.24732,0.06183c-0.18549,0 -0.06183,0 -0.24732,0.06183c-0.18549,0.06183 -0.24732,0.18549 -0.30915,0.18549c-0.06183,0 0,0.06183 0.12366,0.06183c0.12366,-0.18549 0.30915,-0.24732 0.30915,-0.24732l0.24732,-0.06183c0,0 0.18549,-0.06183 0.30915,0c0.12366,0 0.24732,0.06183 0.24732,0.06183h0.12366v0.12366c0,0 0.06183,0.06183 0.12366,0.06183c0.06183,0 0.24732,0.06183 0.30915,0.06183c0.06183,0 0.24732,0.06183 0.24732,0.06183l0.12366,0.12366c0,0 0.12366,0.06183 0.12366,0.12366c0.06183,0 0.18549,0.12366 0.18549,0.12366c0,0 0.12366,0.12366 0.18549,0.12366c0.06183,0.06183 0.37098,0.30915 0.37098,0.30915c0,0 0.12366,0 0.18549,0.06183c0.06183,0 0.18549,0.12366 0.12366,0.18549c-0.04328,0.04328 -0.14709,0.0865 -0.20552,0.10864c-0.01447,-0.01094 -0.02826,-0.02139 -0.04149,-0.03135c-0.19724,-0.14907 -0.25857,-0.19545 -0.37129,-0.13912c-0.06183,0 -0.12366,0.06183 -0.18549,0.06183c-0.06183,0 -0.06183,-0.06183 -0.18549,-0.12366l-0.12366,-0.06183c-0.05775,-0.05775 -0.02108,-0.07506 -0.0034,-0.08341c0.00464,-0.00216 0.00797,-0.00371 0.00792,-0.00525c-0.00006,-0.00507 -0.03778,-0.00965 -0.19,-0.035c-0.37098,-0.06183 -0.18549,0 -0.37098,-0.12366c-0.18549,-0.12366 -0.06183,-0.12366 -0.18549,-0.18549c-0.06183,0.03091 -0.09274,0.04637 -0.12366,0.04637c-0.03091,0 -0.06183,-0.01546 -0.12366,-0.04637l-0.24732,-0.12366l-0.12366,-0.06183c-0.12366,-0.06183 -0.18549,-0.06183 -0.18549,-0.06183l-0.12366,-0.06183c-0.06183,-0.06183 0,-0.12366 -0.18549,-0.12366c-0.24732,0 -0.24732,-0.06183 -0.30915,-0.06183c-0.06183,0 -0.18549,0.06183 -0.24732,0.06183c-0.12366,0 -0.18549,0 -0.24732,-0.06183c-0.06183,0 -0.24732,0.06183 -0.37098,0.12366c-0.12366,0.06183 -0.06183,0 -0.24732,0.06183h-0.12366c0,-0.06183 0.06183,-0.06183 0.06183,-0.12366c0.06183,-0.06183 0,-0.12366 0,-0.12366v-0.06183h-0.49464l-0.24732,0.06183c-0.01738,0 -0.04445,0.00488 -0.07587,0.01051c-0.08038,0.01447 -0.18883,0.03395 -0.23329,-0.01051c-0.06183,-0.06183 -0.12366,0 -0.12366,0c-0.06183,0 -0.18549,0.06183 -0.18549,0.06183c0,0 -0.12366,0.06183 -0.12366,0.12366c0,0.06183 -0.24732,0.18549 -0.30915,0.30915l-0.12366,0.12366c0,0.06183 -0.12366,0.12366 -0.12366,0.12366c0,0 -0.18549,0.18549 -0.24732,0.18549c-0.06183,0.06183 -0.30915,0.12366 -0.30915,0.12366c-0.06183,0 -0.12366,-0.06183 -0.12366,-0.06183c0,0 -0.12366,0 -0.18549,-0.06183c-0.04124,-0.04124 -0.08242,-0.02745 -0.12366,-0.01373c-0.02059,0.00686 -0.04124,0.01373 -0.06183,0.01373c-0.06183,0 -0.49464,0.06183 -0.6183,0.12366c-0.06183,0 -0.18549,-0.06183 -0.24732,-0.12366c-0.06183,-0.06183 -0.06183,-0.12366 -0.06183,-0.12366c0,-0.06183 -0.18549,-0.49464 -0.18549,-0.6183v-0.18549c-0.12366,0 -0.06183,-0.12366 0,-0.18549zM123.12052,223.15947c1.11295,0.68013 1.97857,1.4221 2.47321,2.28772c0.24732,0.43281 0.43281,0.86562 0.49464,1.36027c0.06183,0.43281 0,0.92745 -0.12366,1.4221c-1.17478,-1.48393 -2.47321,-2.8442 -3.95714,-4.0808c0.24732,-0.43281 0.49464,-0.80379 0.74196,-1.17478c0.18549,0.06183 0.24732,0.12366 0.37098,0.18549zM84.35289,224.33425v0.06183c0.04309,0.08619 0.02609,0.14239 0.01187,0.18945c-0.00618,0.0204 -0.01187,0.03914 -0.01187,0.05787v0.18549c0,0.06183 -0.06183,0.12366 -0.06183,0.12366c0,0 -0.30915,0.18549 -0.30915,0.24732v0.18549c0.06183,0.06183 0.06183,0.12366 0.06183,0.12366c0.06183,0 0.06183,0.18549 0.06183,0.18549v0.12366c0,0 -0.06183,0.12366 -0.12366,0.18549c-0.06183,0.06183 -0.06183,0.18549 0,0.18549c0.06183,0.06183 0.06183,0.06183 0.06183,0.12366c0,0.06183 0.06183,0.06183 0.06183,0.12366c0.04309,0.04309 0.02609,0.1163 0.01187,0.17758c-0.00618,0.02665 -0.01187,0.05101 -0.01187,0.06975c0,0.06183 0.12366,0.12366 0.18549,0.12366c0.06183,0 0.06183,-0.12366 0.12366,-0.43281c0.03821,-0.22927 0.02919,-0.2224 0.01676,-0.21288c-0.00773,0.00588 -0.01676,0.0128 -0.01676,-0.03444c0,-0.12366 0,-0.12366 0.06183,-0.24732c0.06183,-0.12366 0,-0.43281 0.06183,-0.68013l0.06183,-0.24732c0,-0.06183 0.06183,-0.30915 0.06183,-0.37098c0,-0.06183 0,-0.18549 0.06183,-0.24732c0.06183,-0.06183 0,-0.06183 0.12366,-0.12366c0.06183,-0.06183 0,-0.12366 0.12366,-0.18549c0.06183,-0.06183 0,-0.06183 0.12366,-0.12366c0.06183,-0.06183 0.06183,-0.06183 0.18549,-0.06183c0.06183,0 0.06183,0 0.18549,0.06183c0.02894,0.02894 0.01725,0.05794 0.00291,0.09324c-0.0162,0.04007 -0.0358,0.08836 -0.00291,0.15408c0,0.06183 -0.06183,0.18549 -0.06183,0.18549c0,0.06183 -0.12366,0.12366 -0.12366,0.12366c0,0 -0.06183,0.06183 -0.06183,0.18549v0.68013l0.06183,0.12366c0.0371,0.0371 0.00742,0.0742 -0.02226,0.11129c-0.01978,0.02473 -0.03957,0.04946 -0.03957,0.0742c0,0.01738 -0.00488,0.04445 -0.01051,0.07587c-0.01447,0.08038 -0.03395,0.18883 0.01051,0.23329c0.06183,0.06183 0.06183,0.30915 0.12366,0.30915c0.06183,0 0.06183,0.18549 0.12366,0.24732c0.04062,0 0.02788,0.18673 0.01434,0.38502c-0.00705,0.10357 -0.01434,0.21022 -0.01434,0.29512c0.04829,0.19309 0.02115,0.23545 -0.02244,0.30359c-0.0123,0.0191 -0.02584,0.04031 -0.03939,0.06739c0,0.12366 -0.06183,0.12366 -0.12366,0.18549c-0.06183,0.06183 -0.06183,0.12366 -0.06183,0.18549c0,0.02139 -0.03697,0.07976 -0.08279,0.15204c-0.08669,0.13677 -0.20497,0.32356 -0.16453,0.40443c0.06183,0.12366 0.12366,0.18549 0.30915,0.37098c0.18549,0.18549 0.12366,0.06183 0.6183,0.30915c0.22345,0.11173 0.27026,0.1351 0.2715,0.13287c0.00037,-0.00056 -0.00253,-0.00297 -0.00612,-0.006c-0.01298,-0.01076 -0.03574,-0.02974 0.04377,-0.00321c0.18549,0.06183 0.06183,0.06183 0.06183,0.06183c0,0 0.12366,0.06183 0.18549,0.06183c0.06183,0 0.18549,0.06183 0.24732,0.06183c0.06183,0 0.12366,0.12366 0.18549,0.18549c0.06183,0.06183 0.6183,0.24732 0.80379,0.24732c0.18549,0 0.06183,0 0.24732,-0.06183c0.18549,-0.06183 0.12366,-0.12366 0.18549,-0.12366c0.01237,0 0.02473,-0.00247 0.03957,-0.00544c0.05936,-0.01187 0.15829,-0.03166 0.45507,0.06727c0.21431,0.07141 0.24293,0.081 0.2527,0.1001c0.00717,0.01404 0.0042,0.03314 0.05645,0.08539c0.12366,0.06183 0.12366,0.12366 0.18549,0.18549c0.06183,0.06183 0.06183,0.12366 0.12366,0.18549c0.06183,0.06183 0.12366,0.24732 0.18549,0.30915c0.06183,0.06183 0.37098,0.18549 0.6183,0.24732c0.24732,0 0.06183,0 0.24732,0.06183c0.12366,0.06183 0.12366,0.12366 0.24732,0.18549c0.12366,0.06183 0.24732,0.12366 0.30915,0.12366c0.06183,0 0.30915,-0.06183 0.30915,-0.06183c0.06183,0 0,0.12366 0,0.12366v0.30915l0.30915,0.49464c0.06183,0 0.06183,0.12366 0.12366,0.18549c0.04124,0 0.02745,0.05497 -0.00457,0.1832c-0.01601,0.06412 -0.03667,0.14654 -0.05726,0.24961c-0.03487,0.20936 -0.03042,0.20212 -0.00878,0.16719c0.01676,-0.02702 0.04365,-0.07049 0.07061,-0.04353c0.06183,0.06183 0,0.06183 0.12366,0.18549c0.12366,0.06183 0.06183,0 0.49464,0.18549l0.00031,0.00012c0.15352,0.06579 0.19798,0.08483 0.19699,0.08761c-0.00043,0.00111 -0.00835,-0.00049 -0.01954,-0.00272c-0.03864,-0.00773 -0.11593,-0.02319 -0.0541,0.03864c0.12366,0.12366 0.06183,0.18549 0.12366,0.24732c0.06183,0.06183 0.06183,0.06183 0.18549,0.06183c0.06183,0 0.12366,0.06183 0.12366,0.06183c0,0 0.49464,0.24732 0.68013,0.30915c0.18549,0.12366 0.06183,0 0.24732,0.18549l0.06183,0.06183c-7.97611,2.28772 -14.96294,2.59687 -18.61093,0.98929c2.78236,-5.19375 5.31741,-7.91428 9.21272,-10.94397zM122.00757,232.86684c-0.98929,0.68013 -2.22589,1.36027 -3.52433,1.97857c-2.6587,1.48393 -5.99754,2.90603 -9.7692,4.20446c-0.06183,-0.18549 -0.06183,-0.30915 -0.06183,-0.30915c0,0 -0.12366,-0.12366 -0.12366,-0.18549c0,-0.06183 -0.06183,-0.12366 -0.12366,-0.18549c-0.06183,-0.06183 -0.12366,-0.12366 -0.12366,-0.18549c0,0 -0.43281,-0.37098 -0.49464,-0.49464c-0.12366,-0.06183 -0.18549,-0.06183 -0.24732,-0.12366c-0.06183,-0.06183 -0.12366,-0.06183 -0.18549,-0.12366c-0.06183,-0.06183 -0.12366,-0.06183 -0.12366,-0.06183h-0.49464c-0.06183,0 -0.80379,-0.30915 -0.80379,-0.37098l-0.12366,-0.12366c-0.06183,-0.06183 -0.06183,-0.18549 -0.12366,-0.24732c-0.06183,-0.06183 -0.37098,-0.24732 -0.43281,-0.30915c-0.03091,-0.03091 -0.04637,-0.04637 -0.04637,-0.06183c0,-0.01546 0.01546,-0.03091 0.04637,-0.06183c0,-0.02059 -0.00686,-0.04124 -0.01373,-0.06183c-0.01373,-0.04124 -0.02751,-0.08242 0.01373,-0.12366c0,-0.06183 -0.12366,-0.12366 -0.18549,-0.24732c-0.06183,-0.06183 -0.24732,-0.18549 -0.30915,-0.24732c0,-0.06183 -0.12366,-0.06183 -0.18549,-0.12366c-0.06183,-0.06183 -0.06183,0 -0.06183,0c0,0 -0.12366,0 -0.18549,-0.06183c-0.04309,-0.04309 -0.02609,-0.1163 -0.01187,-0.17758c0.00618,-0.02665 0.01187,-0.05101 0.01187,-0.06975c0,-0.06183 -0.12366,-0.37098 -0.24732,-0.43281l-0.12366,-0.12366c-0.06183,-0.06183 -0.24732,-0.06183 -0.24732,-0.06183c-0.06183,0 -0.12366,0 -0.18549,-0.06183c-0.03568,0 -0.03017,-0.02059 -0.0191,-0.06183c0.00804,-0.03017 0.0191,-0.07141 0.0191,-0.12366c0,-0.12366 0,-0.18549 -0.06183,-0.18549c-0.06183,0 -0.49464,-0.06183 -0.55647,-0.06183c-0.06183,0 -0.12366,-0.06183 -0.12366,-0.06183c-0.06183,0 -0.06183,0 -0.12366,0.06183h-0.37098c-0.06183,0 -0.43281,-0.06183 -0.49464,-0.12366c-0.06183,-0.06183 -0.06183,-0.06183 -0.18549,-0.12366c-0.12366,-0.06183 -0.18549,-0.06183 -0.24732,-0.12366l-0.18549,-0.06183c-0.12935,-0.04309 -0.16849,-0.02609 -0.20132,-0.01187c-0.01422,0.00618 -0.02727,0.01187 -0.046,0.01187c-0.06183,0 -0.06183,-0.06183 -0.12366,-0.06183c1.05112,-0.37098 2.0404,-0.80379 2.90603,-1.17478c0.18549,-0.06183 3.77165,-2.0404 6.61585,-2.6587c0.93648,-0.20361 1.82604,-0.2195 2.71058,-0.23526c1.80198,-0.03221 3.58325,-0.06406 5.69835,-1.68148c1.05112,-0.80379 1.91674,-1.66942 2.6587,-2.59687c1.54576,1.36027 2.90603,2.8442 4.0808,4.45178c-0.86562,1.17478 -2.0404,2.22589 -3.4625,3.27701zM97.95557,229.34251h0.18549c0.06183,0.06183 0.12366,0.06183 0.43281,0.12366c0.37098,0.06183 0.18549,0 0.68013,0.30915c0.06183,0.06183 0.12366,0.06183 0.12366,0.06183v-0.12366c0,-0.06183 -0.06183,-0.12366 -0.06183,-0.18549c0,-0.06183 -0.12366,-0.12366 -0.18549,-0.18549c-0.06183,-0.06183 0,-0.12366 0.37098,-0.06183h0.18549c0.06183,0 0.12366,0.06183 0.43281,0.12366c0.37098,0.12366 0.12366,0 0.55647,0.12366c0.26748,0.07642 0.22797,0.08199 0.17331,0.08972c-0.03376,0.00476 -0.07327,0.01033 -0.04965,0.03395l0.12366,0.12366c0.06183,0 0.06183,0.06183 0.12366,0.06183c0.06183,0 0.06183,0.06183 0.12366,0.12366c0.10122,0.10122 0.11958,0.20243 0.12292,0.23582c0.0238,0.0068 0.04557,0.0115 0.06257,0.0115l0.06183,0.18549v0.12366l-0.24732,0.06183l-0.24732,0.06183c0,0 -0.68013,-0.24732 -0.6183,-0.43281c0.04186,-0.12558 0.08372,-0.10944 0.14475,-0.08594c0.02912,0.01119 0.06263,0.02411 0.10258,0.02411c0.02566,0 0.04866,-0.00266 0.07012,-0.00631c-0.09825,-0.01731 -0.27922,-0.06733 -0.37927,-0.11736c0,0 -0.24732,0.06183 -0.24732,0.12366c0,0 -0.06183,0.06183 -0.12366,0.06183v0.06183l-0.12366,0.12366c0,0 -0.43281,-0.06183 -0.49464,-0.06183c-0.06183,-0.06183 -0.30915,-0.06183 -0.43281,-0.12366c0,0 -0.24732,0.06183 -0.24732,0.12366c0,0.06183 -0.18549,0.12366 -0.24732,0.12366c-0.06183,0 -0.12366,-0.18549 -0.30915,-0.37098c-0.13528,-0.13528 -0.27063,-0.04031 -0.35794,0.02102c-0.0324,0.02269 -0.05812,0.04081 -0.07488,0.04081h-0.37098c-0.06183,-0.06183 -0.12366,-0.12366 -0.24732,-0.18549c-0.08242,-0.04124 -0.05497,-0.05497 -0.00915,-0.07784c0.02288,-0.01144 0.05039,-0.02523 0.07098,-0.04581c0.02059,-0.02059 0.02745,-0.02745 0.03438,-0.02745c0.01373,0 0.02745,0.02745 0.15111,0.02745c0.18549,0.06183 0.24732,0.06183 0.37098,0.06183c0.08619,0.04309 0.14239,0.02609 0.18945,0.01187c0.0204,-0.00618 0.03914,-0.01187 0.05787,-0.01187c0.03821,0 0.02919,-0.02362 0.0167,-0.05626c-0.00767,-0.02016 -0.0167,-0.04377 -0.0167,-0.06739c0,-0.06183 -0.06183,-0.12366 -0.06183,-0.18549c0,-0.12366 -0.12366,-0.12366 -0.18549,-0.18549c-0.06183,-0.06183 0,-0.12366 0.37098,-0.06183zM95.54418,229.71349l0.24732,0.06183c0,0 0.18549,0 0.12366,0.06183c0,0.04724 0.00903,0.08545 0.01676,0.11809c0.01243,0.0528 0.02146,0.09102 -0.01676,0.12922c-0.02226,0.02226 -0.02851,0.04445 -0.03308,0.06096c-0.00829,0.02937 -0.01138,0.04044 -0.09058,0.00087c-0.06183,-0.06183 -0.06183,-0.06183 -0.18549,-0.06183h-0.24732c-0.12366,0 -0.06183,0 -0.24732,-0.06183c-0.12366,-0.06183 -0.18549,-0.18549 -0.18549,-0.18549v-0.12366l0.18549,-0.06183h0.18549zM102.59284,230.64095h-0.24732c0,0 -0.68013,-0.37098 -0.68013,-0.55647c0.03821,-0.07642 0.07642,-0.05837 0.12922,-0.03345c0.03265,0.0154 0.07086,0.03345 0.11809,0.03345c0.12366,0 0.18549,0 0.30915,0.06183c0.12366,0.06183 0.18549,0.06183 0.24732,0.06183c0.06183,0 0.18549,0.06183 0.24732,0.06183l0.12366,0.18549v0.12366zM94.18391,233.97979c-0.04124,-0.1649 -0.02745,-0.1649 0.00457,-0.1649c0.01601,0 0.03667,0 0.05726,-0.02059l0.12366,-0.12366l0.12366,-0.06183c0.07203,-0.03605 0.1231,-0.00909 0.17764,0.01966c0.03908,0.02065 0.07989,0.04217 0.13151,0.04217c0.12366,0 0.12366,0 0.18549,0.12366c-0.30915,0 -0.55647,0.12366 -0.80379,0.18549zM70.93571,242.75969c-0.18549,-0.18549 -0.43281,-0.92745 0.06183,-3.15335c0.18549,-0.68013 0.43281,-1.36027 0.68013,-2.0404c0.30915,0.18549 0.74196,0.37098 1.4221,0.55647c-0.30915,0.92745 -0.55647,1.79308 -0.74196,2.78236c0.43281,-0.92745 0.80379,-1.79308 1.17478,-2.6587c3.21518,0.74196 9.7692,0.92745 18.79642,-1.85491c0.74196,-0.24732 1.66942,-0.55647 2.72053,-0.86562c0,0.12366 -0.06183,0.24732 -0.06183,0.30915c-0.06183,0.30915 0,0.24732 0,0.24732c0,0 0.06183,0.06183 0,0.12366c0,0.12366 -0.18549,0.18549 -0.24732,0.18549c-0.06183,0.06183 -0.12366,0.06183 -0.12366,0.06183c0,0 -0.24732,0.12366 -0.24732,0.18549h-0.18549c-0.06183,0 -0.12366,0.06183 -0.12366,0.12366l-0.06183,0.12366c-0.06183,0.06183 -0.12366,0.12366 -0.06183,0.18549c0,0.06183 -0.06183,0.12366 -0.12366,0.12366c0,0 -0.12366,0.06183 -0.24732,0c-0.06183,0 -0.12366,0.06183 -0.18549,0.06183c-0.06183,0.06183 -0.24732,0.12366 -0.30915,0.24732l-0.06183,0.12366c0,0.06183 -0.06183,0.12366 -0.06183,0.12366c0,0.06183 -0.12366,0.18549 -0.24732,0.24732c0,0 -0.06183,0.18549 -0.12366,0.30915c0,0.06183 -0.12366,0.30915 -0.12366,0.30915c0,0.01082 -0.00192,0.0217 -0.00402,0.03388c-0.01008,0.05726 -0.02529,0.144 0.12768,0.39893c0.11222,0.14957 0.11129,0.14085 0.10672,0.09689c-0.00297,-0.02875 -0.00748,-0.07247 0.01694,-0.09689c0.06183,0 0.18549,-0.06183 0.24732,-0.06183h0.06183c0.06183,0 -0.12366,0.49464 -0.18549,0.49464c-0.06183,0 -0.49464,0.18549 -0.55647,0.18549c-0.06183,0 -0.18549,0.12366 -0.18549,0.12366c0,0 -0.24732,0.37098 -0.18549,0.49464c0,0.02919 -0.00346,0.0515 -0.00711,0.07506c-0.01175,0.07617 -0.02554,0.1654 0.06894,0.54324c0.07747,0.30989 0.08211,0.28003 0.09002,0.2297c0.0047,-0.02999 0.01051,-0.06733 0.03364,-0.04421c0.06183,0.06183 0.06183,0.12366 0.24732,0.24732c0.18549,0.12366 0.06183,0.12366 0.18549,0.24732c0.12366,0.12366 0.06183,0.12366 0.12366,0.18549c0.06183,0 0.24732,0.86562 0.30915,1.11295c-3.83348,0.68013 -7.5433,1.11295 -11.0058,1.36027c-7.66696,0.55647 -10.20201,-0.55647 -11.0058,-1.48393zM133.94206,242.86159c0.01298,-0.54052 0.06059,-2.6046 -1.91798,-6.03761c4.26629,1.54576 7.17232,3.58616 7.29598,5.56473c0,1.73125 -1.85491,3.40067 -5.07009,4.76094c-0.43281,0.24732 -0.92745,0.43281 -1.48393,0.6183c-3.64799,1.29844 -8.59442,2.22589 -14.40647,3.09152c-2.41138,0.30915 -4.63727,0.49464 -6.55401,0.49464c-0.06183,0.06183 -0.24732,0.30915 -0.30915,0.37098c-0.06183,0.06183 -0.12366,0.18549 -0.18549,0.24732c-0.12366,0.06183 -0.06183,0.18549 -0.18549,0.30915c-0.12366,0.18549 -0.6183,0.68013 -0.74196,0.74196c-0.12366,0.06183 -0.18549,0.24732 -0.24732,0.30915l-0.18549,0.18549c-0.12366,0.12366 -0.06183,0.24732 -0.24732,0.24732c-0.18549,0 -0.24732,0.06183 -0.30915,0.06183c-0.01874,0 -0.03747,0.00569 -0.05787,0.01187c-0.04705,0.01422 -0.10326,0.03123 -0.18945,-0.01187c-0.12366,-0.06183 -0.24732,-0.06183 -0.30915,-0.12366c-0.03055,-0.03055 -0.0008,-0.03091 0,-0.03091c0,0 -0.03091,0 -0.18549,-0.03091c-0.12762,0 -0.19205,-0.01051 -0.24108,-0.01855c-0.06975,-0.01144 -0.10839,-0.01774 -0.25357,0.01855c-0.24732,0.06183 -0.24732,0.06183 -0.37098,0.12366c-0.12366,0 -0.6183,0.18549 -0.74196,0.18549c-0.12366,0.06183 -0.24732,0.12366 -0.30915,0.12366c-0.06183,0 -0.24732,0.06183 -0.30915,0.06183c-0.06183,0 -0.18549,0.12366 -0.24732,0.12366c-0.06183,0 -0.18549,0.12366 -0.18549,0.12366c0,0.06183 -0.12366,0.18549 -0.12366,0.24732c0,0.06183 -0.18549,0.24732 -0.18549,0.30915c0,0.06183 0,0.24732 -0.06183,0.37098c0,0.18549 -0.06183,0.30915 -0.12366,0.37098c-0.06183,0.06183 -0.18549,0.18549 -0.30915,0.24732c-0.12366,0 -0.24732,0 -0.43281,0.06183c0,0.06183 -0.06183,0.12366 -0.12366,0.18549c-0.06183,0.06183 -0.12366,0.18549 -0.18549,0.24732c-0.06183,0.06183 -0.18549,0.24732 -0.30915,0.30915c-0.12366,0 -0.24732,0.06183 -0.37098,0.12366c-0.03623,0 -0.0512,-0.01064 -0.06362,-0.01942c-0.03005,-0.02121 -0.04501,-0.03178 -0.30736,0.14307c-0.30915,0.24732 -0.37098,0.43281 -0.49464,0.49464c-0.12366,0.06183 -0.18549,0.06183 -0.24732,0.18549l-0.12366,0.12366l-0.24732,0.18549c-0.24732,0.18549 -0.30915,0.18549 -0.30915,0.18549c0,0 0,0.06183 -0.06183,0.06183c-0.06183,0 -0.06183,0 -0.24732,-0.06183l-0.18549,-0.06183c-0.18549,-0.06183 -0.18549,-0.06183 -0.30915,-0.06183l-0.24732,-0.12366c-0.12366,-0.06183 -0.12366,-0.06183 -0.18549,-0.12366c-0.06183,0 -0.18549,0 -0.18549,-0.06183c0,-0.06183 0,-0.06183 -0.06183,-0.12366c-0.06183,-0.06183 -0.12366,-0.30915 -0.12366,-0.30915v0.43281l0.24732,0.37098v0.24732c-0.06183,0.06183 -0.06183,0.12366 0,0.18549c0,0.06183 0,0.12366 0.06183,0.12366c0.06183,0 0.06183,0.06183 0.06183,0.12366c0,0.06183 -0.12366,0.37098 -0.18549,0.43281c-0.06183,0.06183 -0.18549,0.12366 -0.24732,0.18549l-0.18549,0.18549c-0.06183,0.06183 -0.30915,0.12366 -0.43281,0.12366c-0.12366,-0.06183 -0.18549,-0.06183 -0.24732,-0.06183c-0.06183,-0.06183 -0.24732,-0.06183 -0.37098,-0.06183c-0.12366,0 -0.43281,-0.06183 -0.49464,-0.06183c-0.12366,0 -0.18549,0 -0.24732,-0.06183c0,-0.06183 -0.12366,-0.12366 -0.12366,-0.12366c-0.06183,0 -0.06183,0.43281 -0.06183,0.43281c0,0 -0.06183,0.12366 -0.06183,0.18549l-0.06183,0.24732c-0.06183,0.24732 -0.18549,0.24732 -0.24732,0.24732c-0.06183,0 -0.30915,-0.06183 -0.37098,-0.06183c-0.06183,-0.06183 -0.12366,-0.06183 -0.18549,-0.12366c-0.06183,-0.06183 -0.12366,-0.18549 -0.18549,-0.18549c-0.06183,-0.06183 -0.12366,-0.06183 -0.12366,-0.06183c0,0 -0.12366,0.24732 -0.12366,0.30915l0.06183,0.37098l0.12366,0.12366l0.24732,0.06183c0,0 0.18549,-0.06183 0.18549,0c0,0.06183 -0.18549,0.18549 -0.18549,0.18549c0,0 -0.12366,0.06183 -0.18549,0.06183c-0.06183,0 -0.12366,0 -0.12366,0.06183c0,0.06183 -0.06183,0.12366 -0.12366,0.18549c-0.06183,0.12366 -0.12366,0.18549 -0.12366,0.24732c-0.06183,0.06183 -0.12366,0.18549 -0.12366,0.18549c0,0 0,0.12366 -0.12366,0.12366c-0.12366,0.06183 -0.24732,0.06183 -0.30915,0.06183c-0.06183,0 -0.24732,0.12366 -0.30915,0.12366c-0.06183,0.06183 -0.12366,0.06183 -0.12366,0.12366c0,0.06183 0.06183,0.43281 0.06183,0.49464c0.06183,0.06183 0.06183,0.18549 0.12366,0.18549c0.06183,0 0.18549,0.06183 0.18549,0.06183c0.06183,0 0.18549,0.06183 0.18549,0.06183c0,0 0.06183,0.06183 0.06183,0.12366c0,0.06183 -0.06183,0.18549 -0.12366,0.18549c-0.12366,0.06183 -0.12366,0.12366 -0.24732,0.12366c-0.12366,0.06183 -0.12366,0.12366 -0.18549,0.12366l-0.18549,0.18549c-0.24732,0.18549 -0.24732,0.24732 -0.24732,0.24732v0.12366c-0.02362,0.0235 -0.02016,0.02906 -0.01725,0.03401c0.00476,0.00742 0.00822,0.01298 -0.10641,0.08965c-0.18549,0.12366 -0.24732,0.24732 -0.24732,0.24732v0.43281c0,0.06183 0.06183,0.12366 0.06183,0.18549c0,0.0235 0.00903,0.04699 0.01676,0.06739c0.01243,0.03277 0.02146,0.05626 -0.01676,0.05626c-0.06183,0 -0.06183,0 -0.06183,0.06183c0,0.0235 -0.00903,0.02906 -0.01676,0.03401c-0.01243,0.00742 -0.02146,0.01298 0.01676,0.08965c0,0.12366 0.18549,0.30915 0.18549,0.37098c0.06183,0.06183 0.12366,0.18549 0.12366,0.18549c0,0 0,0.06183 0.06183,0.12366c0.06183,0 0.12366,0.06183 0.12366,0.06183l0.18549,0.06183l0.12366,0.06183l0.12366,0.06183l0.06183,0.12366c0,0 -0.12366,0.12366 -0.18549,0.12366l-0.18549,-0.06183h-0.24732c-0.06183,0 -0.18549,-0.06183 -0.24732,-0.06183c-0.06183,0 -0.12366,-0.06183 -0.18549,-0.06183c-0.06183,0 -0.49464,-0.24732 -0.55647,-0.24732c-0.06183,0 0,-0.06183 -0.06183,-0.06183c-0.06183,-0.06183 -0.24732,-0.24732 -0.30915,-0.24732c0,0 -0.06183,-0.12366 -0.06183,-0.18549c-0.06183,-0.06183 -0.18549,-0.18549 -0.18549,-0.24732c0,0 -0.06183,-0.06183 -0.06183,-0.12366c0,-0.06183 0,-0.18549 -0.06183,-0.24732c0,-0.06183 0,-0.12366 -0.06183,-0.12366c-0.06183,-0.06183 -0.06183,-0.12366 -0.06183,-0.12366v-0.18549c0,0 0,-0.12366 -0.06183,-0.18549c-0.06183,-0.06183 -0.18549,-0.18549 -0.18549,-0.24732c0,-0.0204 0.02745,-0.0068 0.05497,0.0068c0.05497,0.02783 0.10993,0.05503 -0.05497,-0.19229c-0.30915,-0.37098 0,-0.6183 0,-0.6183v-0.18549l0.12366,-0.18549c0,0 0.06183,-0.12366 0,-0.18549v-0.24732c0.06183,-0.12366 0.06183,-0.18549 0.06183,-0.18549v-0.12366c0,-0.06183 0.18549,-0.55647 0.18549,-0.55647c0,0 0.12366,-0.06183 0.12366,-0.12366c0,-0.06183 -0.06183,-0.06183 -0.06183,-0.18549c0,-0.12366 0,-0.12366 0.06183,-0.24732c0.06183,-0.12366 0.12366,-0.18549 0.12366,-0.24732c0.06183,-0.12366 0.06183,-0.12366 0.06183,-0.18549v-0.12366c0.02745,-0.05503 0.04273,-0.03648 0.05126,-0.02659c0.00235,0.00309 0.0042,0.00495 0.00563,0.00495c0.00495,-0.00062 0.00495,-0.03091 0.00495,-0.16385c0,-0.13664 0.03778,-0.23557 0.06115,-0.29679c0.01886,-0.04946 0.02832,-0.0742 0.00068,-0.0742c-0.0217,0 -0.01292,-0.01546 -0.00315,-0.03215c0.01818,-0.03153 0.04007,-0.06987 -0.12051,-0.02968c-0.18549,0.06183 -0.24732,0 -0.24732,0.06183v0.12366c0,0 0.06183,0.12366 0,0.18549c-0.02362,0.0235 -0.02016,0.0742 -0.01725,0.11748c0.00476,0.06987 0.00822,0.12057 -0.10641,0.00618c-0.18549,-0.18549 -0.18549,-0.18549 -0.18549,-0.24732c-0.06183,0 0,-0.18549 0,-0.18549c0,0 0.12366,-0.18549 0.12366,-0.24732c0.06183,0 0.06183,0 0.06183,-0.06183v-0.24732c0,-0.06183 0.18549,-0.49464 0.18549,-0.6183c0.06183,-0.12366 0.06183,-0.18549 0,-0.24732c0,-0.12366 0,-0.24732 -0.06183,-0.30915c-0.00946,-0.00928 -0.01892,-0.01731 -0.0277,-0.02473c-0.04872,-0.04143 -0.07704,-0.06554 0.0277,-0.22259c0.12366,-0.18549 0.18549,-0.24732 0.18549,-0.30915c0,-0.06183 0.06183,-0.12366 0.12366,-0.24732c0,-0.06183 0,-0.12366 0.06183,-0.18549c0,-0.06183 0.12366,-0.24732 0.12366,-0.30915c0,-0.06183 0.06183,-0.12366 0.12366,-0.18549c0.06183,-0.06183 0.18549,-0.24732 0.18549,-0.30915c0,-0.06183 0.18549,-0.55647 0.18549,-0.55647c0,0 0.06183,-0.12366 0.06183,-0.18549c0,-0.06183 0.06183,-0.30915 0.06183,-0.37098c-0.06183,-0.06183 -0.06183,-0.24732 -0.06183,-0.37098c-0.06183,-0.12366 -0.06183,-0.30915 0,-0.43281c0,-0.18549 0.12366,-0.49464 0.12366,-0.55647c0,-0.06183 0.06183,-0.18549 0.06183,-0.18549c0,0 0.06183,-0.30915 0.06183,-0.43281c0.06183,-0.12366 0.06183,-0.24732 0.12366,-0.30915c0.06183,-0.06183 0.18549,-0.18549 0.18549,-0.24732c0,-0.06183 0.06183,-0.06183 0.12366,-0.30915c0.06183,-0.18549 0.12366,-0.43281 0.12366,-0.49464c0,-0.06183 0.12366,-0.37098 0.12366,-0.43281c0.06183,0 0.06183,0 0.06183,-0.24732c0,-0.43281 0.18549,-0.74196 0.18549,-0.86562c0,-0.06183 0,-0.12366 0.06183,-0.30915l0.12366,-0.37098v-0.06183c0,-0.06183 0.12366,-0.12366 0.12366,-0.37098c0,-0.24732 0.06183,-0.24732 0.06183,-0.43281c0,-0.07086 0.00903,-0.13269 0.01676,-0.18549c0.01243,-0.08545 0.02146,-0.14728 -0.01676,-0.18549c-0.06183,-0.12366 -0.18549,-0.43281 -0.18549,-0.55647c0,-0.04279 0.03704,-0.05596 0.07012,-0.06771c0.06245,-0.0222 0.11061,-0.03932 -0.13194,-0.24145c-0.37098,-0.30915 -0.37098,-0.43281 -0.6183,-0.6183c-0.24732,-0.18549 -0.68013,-0.43281 -0.80379,-0.49464c-0.12366,-0.12366 -0.06183,-0.18549 -0.24732,-0.24732c-0.07451,-0.02486 -0.09911,0.0102 -0.11797,0.03691c-0.02801,0.03988 -0.04316,0.0614 -0.19118,-0.16057c-0.06183,-0.12366 -0.12366,-0.18549 -0.12366,-0.24732c0.74196,-0.12366 1.54576,-0.24732 2.34955,-0.43281c5.07009,-1.05112 9.83103,-2.28772 14.09732,-3.70982l0.24732,0.12366c0,0 0,0.06183 0.06183,0.06183c0.06183,0.06183 0.12366,0.06183 0.12366,0.06183l0.18549,0.30915l0.12366,0.06183h0.06183c0,0 0.06183,0.06183 0.06183,0.12366v0.12366c0,0.02652 0.03407,0.05299 0.06814,0.07952c0.04545,0.03531 0.09083,0.07067 0.05552,0.10598c-0.06183,0.06183 -0.12366,0.12366 -0.06183,0.12366c0,0.06183 0.12366,0.06183 0.18549,0.06183c0.06183,0 0.74196,0.37098 0.74196,0.37098c0,0 0.06183,0 0.12366,0.06183c0.06183,0.06183 0.18549,0.06183 0.18549,0.12366l0.30915,0.06183h0.18549l0.68013,0.37098c0.06183,0 0.06183,0.06183 0.12366,0.12366c0.06183,0.12366 0.06183,0.18549 0.06183,0.18549c0,0 0.12366,0.06183 0.12366,0.12366l0.30915,0.68013l0.30915,0.30915h0.12366l0.30915,0.12366c0,0 0.37098,0.18549 0.37098,0.24732v0.30915c-0.06183,0.06183 -0.06183,0.18549 -0.06183,0.24732c0,0 -0.37098,0.92745 -0.37098,0.98929c0,0 0.06183,0.18549 -0.06183,0.24732c-0.12366,0.06183 -0.12366,0.06183 -0.12366,0.12366l-0.06183,0.06183c-0.06183,0 -0.06183,0.12366 -0.18549,0.18549c-0.12366,0.06183 -0.68013,0.43281 -0.80379,0.49464c-0.12366,0.06183 -0.24732,0.12366 -0.30915,0.18549l-0.18549,0.18549l-0.18549,0.18549c-0.06183,0.06183 -0.12366,0.12366 -0.18549,0.12366c-0.06183,0.06183 -0.06183,0.06183 -0.18549,0.06183c-0.12366,0 -0.12366,0 -0.18549,0.06183l-0.00031,0.00031c-0.01434,0.01434 -0.01855,0.01855 -0.01818,0.01898c0.00019,0.00019 0.00111,-0.00031 0.00247,-0.00099c0.00915,-0.00457 0.0366,-0.0183 -0.04581,0.10536c-0.12366,0.18549 -0.06183,0.12366 -0.12366,0.24732c0,0.06183 -0.12366,0.49464 -0.18549,0.74196c9.7692,-0.80379 17.43616,-2.78236 20.46585,-5.25558c0.68013,-0.55647 1.11295,-1.17478 1.29844,-1.79308c0.06183,-0.12366 0.06183,-0.30915 0.06183,-0.49464c0,-0.02189 0.00062,-0.04971 0.00124,-0.0836z"
                    data-paper-data="{&quot;isPathIcon&quot;:true}"></path>
            </g>
        </g>
    </g>
</svg>